
<svg version="1.0" xmlns="http://www.w3.org/2000/svg"
 width="200.000000pt" height="200.000000pt" viewBox="0 0 200.000000 200.000000"
 preserveAspectRatio="xMidYMid meet">

<g transform="translate(0.000000,200.000000) scale(0.100000,-0.100000)"
fill="#C2C2C2" stroke="none">
<path d="M650 1777 c-154 -52 -233 -170 -234 -347 0 -75 4 -93 32 -153 38 -83
139 -191 215 -232 67 -37 151 -40 220 -6 85 41 195 167 233 266 27 71 25 201
-4 276 -69 176 -271 262 -462 196z m211 -129 c57 -19 90 -49 115 -102 30 -65
32 -153 4 -214 -22 -48 -111 -147 -152 -168 -60 -31 -119 -6 -200 84 -61 68
-73 98 -73 187 0 69 4 86 27 127 49 83 175 122 279 86z"/>
<path d="M1380 1257 c-17 -8 -30 -29 -41 -62 -22 -69 -58 -90 -122 -73 -67 17
-86 4 -146 -99 -62 -106 -64 -133 -16 -176 29 -25 35 -38 35 -70 0 -31 -7 -48
-35 -78 -19 -22 -35 -49 -35 -61 0 -23 57 -132 97 -185 26 -35 51 -41 110 -24
48 14 92 -19 110 -81 8 -27 22 -52 33 -58 11 -6 64 -13 118 -16 120 -6 141 2
163 70 13 39 25 54 57 73 36 22 43 23 85 11 62 -16 83 0 141 106 56 102 57
127 11 173 -27 27 -35 43 -35 70 0 27 9 45 35 74 19 22 35 49 35 62 0 24 -92
185 -118 205 -20 15 -66 16 -94 1 -16 -8 -29 -7 -59 7 -33 15 -41 24 -51 61
-17 69 -43 83 -157 83 -57 0 -106 -5 -121 -13z m165 -167 c36 -81 118 -127
204 -117 43 5 49 3 63 -21 15 -25 15 -27 -13 -61 -55 -70 -54 -187 1 -246 19
-20 21 -29 13 -47 -9 -20 -17 -23 -74 -23 -91 0 -147 -34 -184 -110 -25 -50
-30 -55 -60 -55 -30 0 -35 4 -45 36 -27 82 -132 145 -215 130 -31 -6 -36 -4
-46 18 -10 20 -8 29 9 54 29 40 46 110 38 153 -3 20 -19 56 -35 81 -25 39 -27
48 -16 68 11 20 20 23 76 24 88 1 148 36 181 106 20 43 27 49 54 50 27 0 33
-6 49 -40z"/>
<path d="M1455 868 c-61 -33 -73 -107 -26 -160 24 -27 36 -33 71 -33 56 0 100
46 100 103 -1 75 -81 125 -145 90z"/>
<path d="M469 955 c-231 -94 -419 -328 -461 -575 -20 -118 -55 -110 494 -110
l459 0 24 25 c32 31 32 59 0 90 l-24 25 -401 0 c-464 0 -425 -13 -358 121 51
103 161 217 255 267 l62 33 38 -19 c94 -47 273 -63 312 -28 26 24 28 77 3 99
-13 12 -37 17 -83 17 -69 0 -154 20 -204 49 -51 29 -59 30 -116 6z"/>
</g>
</svg>
