<svg width="28" height="28" viewBox="0 0 28 28" fill="none" xmlns="http://www.w3.org/2000/svg">
<path fill-rule="evenodd" clip-rule="evenodd" d="M24.9285 6.14553C24.2802 5.21254 23.1976 4.65419 22.0401 4.65589H5.80007C3.87812 4.65589 2.32007 6.17165 2.32007 8.04144V19.3266C2.32007 21.1964 3.87812 22.7122 5.80007 22.7122H22.0401C23.962 22.7122 25.5201 21.1964 25.5201 19.3266V8.04144C25.5216 7.36621 25.3156 6.70596 24.9285 6.14553ZM5.80007 6.91292H22.0401C22.3733 6.91333 22.6902 7.0531 22.9101 7.29662L13.9201 12.4088L4.94167 7.28533C5.16098 7.04893 5.47274 6.91367 5.80007 6.91292ZM22.0401 20.4551C22.6807 20.4551 23.2001 19.9499 23.2001 19.3266V9.72293L15.0801 14.3498C14.7276 14.5488 14.3275 14.6538 13.9201 14.6545C13.5137 14.6573 13.1136 14.5561 12.7601 14.3611L4.64007 9.72293V19.3266C4.64007 19.9499 5.15942 20.4551 5.80007 20.4551H22.0401Z" fill="#C2C2C2"/>
</svg>
