<svg width="28" height="28" viewBox="0 0 28 28" fill="none" xmlns="http://www.w3.org/2000/svg">
<path fill-rule="evenodd" clip-rule="evenodd" d="M22.0401 5.78441H20.8801V3.52738C20.8801 2.90412 20.3607 2.39886 19.7201 2.39886C19.0794 2.39886 18.5601 2.90412 18.5601 3.52738V5.78441H9.28007V3.52738C9.28007 2.90412 8.76072 2.39886 8.12007 2.39886C7.47942 2.39886 6.96007 2.90412 6.96007 3.52738V5.78441H5.80007C3.87812 5.78441 2.32007 7.30018 2.32007 9.16996V21.5836C2.32007 23.4534 3.87812 24.9692 5.80007 24.9692H22.0401C23.962 24.9692 25.5201 23.4534 25.5201 21.5836V9.16996C25.5201 7.30018 23.962 5.78441 22.0401 5.78441ZM4.64007 9.16996C4.64007 8.5467 5.15942 8.04145 5.80007 8.04145H22.0401C22.6807 8.04145 23.2001 8.5467 23.2001 9.16996V10.2985H4.64007V9.16996ZM22.0401 22.7122C22.6807 22.7122 23.2001 22.2069 23.2001 21.5836V12.5555H4.64007V21.5836C4.64007 22.2069 5.15942 22.7122 5.80007 22.7122H22.0401Z" fill="#C2C2C2"/>
</svg>
