<svg width="28" height="28" viewBox="0 0 28 28" fill="none" xmlns="http://www.w3.org/2000/svg">
<path fill-rule="evenodd" clip-rule="evenodd" d="M14.8828 2.39886H22.04C23.962 2.39886 25.52 3.91463 25.52 5.78441V12.7474C25.5192 13.645 25.152 14.5055 24.4992 15.1398L16.3792 23.0394C15.0206 24.3596 12.8195 24.3596 11.4608 23.0394L4.30363 16.0765C2.94664 14.7547 2.94664 12.6134 4.30363 11.2916L12.4236 3.39196C13.0756 2.75686 13.9602 2.39965 14.8828 2.39886ZM22.8636 13.5486C23.0808 13.3356 23.2018 13.0473 23.2 12.7474V5.78441C23.2 5.16115 22.6807 4.6559 22.04 4.6559H14.8828C14.5757 4.66005 14.2815 4.77695 14.0592 4.98317L5.93923 12.8828C5.71962 13.0947 5.5961 13.3831 5.5961 13.684C5.5961 13.9849 5.71962 14.2734 5.93923 14.4853L13.0964 21.4482C13.3142 21.6619 13.6107 21.782 13.92 21.782C14.2293 21.782 14.5258 21.6619 14.7436 21.4482L22.8636 13.5486ZM18.56 5.78441C16.6381 5.78441 15.08 7.30018 15.08 9.16996C15.08 11.0398 16.6381 12.5555 18.56 12.5555C20.482 12.5555 22.04 11.0398 22.04 9.16996C22.04 7.30018 20.482 5.78441 18.56 5.78441ZM17.4 9.16996C17.4 9.79323 17.9194 10.2985 18.56 10.2985C19.2007 10.2985 19.72 9.79323 19.72 9.16996C19.72 8.5467 19.2007 8.04145 18.56 8.04145C17.9194 8.04145 17.4 8.5467 17.4 9.16996Z" fill="#C2C2C2"/>
</svg>
