<svg width="28" height="28" viewBox="0 0 28 28" fill="none" xmlns="http://www.w3.org/2000/svg">
<path fill-rule="evenodd" clip-rule="evenodd" d="M24.8935 20.8727L22.4111 9.58752C22.066 8.02444 20.644 6.90926 19.0007 6.91293H18.5599C18.5599 4.41988 16.4825 2.39886 13.9199 2.39886C11.3573 2.39886 9.27988 4.41988 9.27988 6.91293H8.83908C7.19576 6.90926 5.77378 8.02444 5.42868 9.58752L2.94628 20.8727C2.72566 21.872 2.98088 22.9147 3.64075 23.7101C4.30061 24.5054 5.29449 24.9681 6.34508 24.9692H21.4947C22.5453 24.9681 23.5392 24.5054 24.199 23.7101C24.8589 22.9147 25.1141 21.872 24.8935 20.8727ZM13.9199 4.6559C15.2012 4.6559 16.2399 5.66641 16.2399 6.91293H11.5999C11.5999 5.66641 12.6386 4.6559 13.9199 4.6559ZM21.4947 22.7122C21.8416 22.7099 22.1693 22.5567 22.3879 22.2946C22.6252 22.0369 22.7278 21.6875 22.6663 21.3467L20.1839 10.0615C20.0671 9.53206 19.5803 9.15792 19.0239 9.16996H8.86228C8.30584 9.15792 7.81903 9.53206 7.70228 10.0615L5.21988 21.3467C5.14578 21.6805 5.23108 22.0291 5.45188 22.2946C5.67045 22.5567 5.99815 22.7099 6.34508 22.7122H21.4947Z" fill="#C2C2C2"/>
</svg>
