<svg width="17" height="17" viewBox="0 0 17 17" fill="none" xmlns="http://www.w3.org/2000/svg">
<path fill-rule="evenodd" clip-rule="evenodd" d="M14.9784 3.7998V13.1331C14.9784 14.2377 14.083 15.1331 12.9784 15.1331H3.64511C2.54054 15.1331 1.64511 14.2377 1.64511 13.1331V3.7998C1.64511 2.69524 2.54054 1.7998 3.64511 1.7998H12.9784C14.083 1.7998 14.9784 2.69524 14.9784 3.7998ZM6.81178 4.99314C7.37044 4.53667 8.1068 4.35994 8.81178 4.51314L8.81844 4.49314C9.84933 4.71412 10.6051 5.59719 10.6643 6.64983C10.7235 7.70247 10.0714 8.66469 9.07178 8.9998C8.81998 9.12908 8.65704 9.38367 8.64511 9.66647V9.7998C8.64511 10.168 8.34663 10.4665 7.97844 10.4665C7.61025 10.4665 7.31178 10.168 7.31178 9.7998V9.64647C7.33048 8.79842 7.85599 8.04432 8.64511 7.73314C9.07946 7.59485 9.36533 7.18032 9.34022 6.72518C9.31511 6.27003 8.98537 5.88947 8.53844 5.7998C8.22162 5.73209 7.89133 5.81589 7.64511 6.02647C7.4149 6.21698 7.28269 6.501 7.28511 6.7998C7.28511 7.16799 6.98663 7.46647 6.61844 7.46647C6.25025 7.46647 5.95178 7.16799 5.95178 6.7998C5.9497 6.09834 6.26602 5.43383 6.81178 4.99314ZM8.67178 11.8531C8.67011 11.7639 8.65203 11.6758 8.61844 11.5931C8.58807 11.5071 8.53782 11.4294 8.47178 11.3665C8.21175 11.108 7.7918 11.108 7.53178 11.3665C7.46942 11.4273 7.41959 11.4998 7.38511 11.5798C7.3535 11.6628 7.33768 11.751 7.33844 11.8398C7.3409 12.0163 7.40996 12.1854 7.53178 12.3131C7.65759 12.4379 7.82791 12.5075 8.00511 12.5065H8.13178L8.25844 12.4665C8.29824 12.4505 8.33623 12.4304 8.37178 12.4065L8.47178 12.3265C8.59902 12.2018 8.67104 12.0313 8.67178 11.8531ZM12.9784 3.13314C13.3466 3.13314 13.6451 3.43161 13.6451 3.7998V13.1331C13.6451 13.5013 13.3466 13.7998 12.9784 13.7998H3.64511C3.27692 13.7998 2.97844 13.5013 2.97844 13.1331V3.7998C2.97844 3.43161 3.27692 3.13314 3.64511 3.13314H12.9784Z" fill="#C2C2C2"/>
</svg>
