<svg width="17" height="17" viewBox="0 0 17 17" fill="none" xmlns="http://www.w3.org/2000/svg">
<path fill-rule="evenodd" clip-rule="evenodd" d="M11.6451 5.12166C11.6451 3.28071 10.1527 1.78833 8.31178 1.78833C6.47083 1.78833 4.97844 3.28071 4.97844 5.12166C4.97844 6.96261 6.47083 8.455 8.31178 8.455H7.64511C4.3314 8.455 1.64511 11.1413 1.64511 14.455C1.64511 14.8232 1.94359 15.1217 2.31178 15.1217H14.3118C14.68 15.1217 14.9784 14.8232 14.9784 14.455C14.9784 11.1413 12.2922 8.455 8.97844 8.455H8.31178C9.19583 8.455 10.0437 8.10381 10.6688 7.47869C11.2939 6.85356 11.6451 6.00572 11.6451 5.12166ZM7.64511 9.78833C5.32486 9.78773 3.35658 11.4919 3.02511 13.7883H13.5984C13.267 11.4919 11.2987 9.78773 8.97844 9.78833H7.64511ZM6.31178 5.12166C6.31178 6.22623 7.20721 7.12166 8.31178 7.12166C8.84221 7.12166 9.35092 6.91095 9.72599 6.53588C10.1011 6.1608 10.3118 5.6521 10.3118 5.12166C10.3118 4.01709 9.41635 3.12166 8.31178 3.12166C7.20721 3.12166 6.31178 4.01709 6.31178 5.12166Z" fill="#C2C2C2"/>
</svg>
