<svg width="28" height="28" viewBox="0 0 28 28" fill="none" xmlns="http://www.w3.org/2000/svg">
<path fill-rule="evenodd" clip-rule="evenodd" d="M5.80007 2.39893H9.28007C11.202 2.39893 12.7601 3.91469 12.7601 5.78448V9.17003C12.7601 11.0398 11.202 12.5556 9.28007 12.5556H5.80007C3.87812 12.5556 2.32007 11.0398 2.32007 9.17003V5.78448C2.32007 3.91469 3.87812 2.39893 5.80007 2.39893ZM9.28007 10.2985C9.92072 10.2985 10.4401 9.79329 10.4401 9.17003V5.78448C10.4401 5.16121 9.92072 4.65596 9.28007 4.65596H5.80007C5.15942 4.65596 4.64007 5.16121 4.64007 5.78448V9.17003C4.64007 9.79329 5.15942 10.2985 5.80007 10.2985H9.28007ZM9.28007 14.8126H5.80007C3.87812 14.8126 2.32007 16.3284 2.32007 18.1982V21.5837C2.32007 23.4535 3.87812 24.9693 5.80007 24.9693H9.28007C11.202 24.9693 12.7601 23.4535 12.7601 21.5837V18.1982C12.7601 16.3284 11.202 14.8126 9.28007 14.8126ZM9.28007 22.7122C9.92072 22.7122 10.4401 22.207 10.4401 21.5837V18.1982C10.4401 17.5749 9.92072 17.0696 9.28007 17.0696H5.80007C5.15942 17.0696 4.64007 17.5749 4.64007 18.1982V21.5837C4.64007 22.207 5.15942 22.7122 5.80007 22.7122H9.28007ZM22.0401 14.8126H18.5601C16.6381 14.8126 15.0801 16.3284 15.0801 18.1982V21.5837C15.0801 23.4535 16.6381 24.9693 18.5601 24.9693H22.0401C23.962 24.9693 25.5201 23.4535 25.5201 21.5837V18.1982C25.5201 16.3284 23.962 14.8126 22.0401 14.8126ZM22.0401 22.7122C22.6807 22.7122 23.2001 22.207 23.2001 21.5837V18.1982C23.2001 17.5749 22.6807 17.0696 22.0401 17.0696H18.5601C17.9194 17.0696 17.4001 17.5749 17.4001 18.1982V21.5837C17.4001 22.207 17.9194 22.7122 18.5601 22.7122H22.0401ZM22.0401 2.39893H18.5601C16.6381 2.39893 15.0801 3.91469 15.0801 5.78448V9.17003C15.0801 11.0398 16.6381 12.5556 18.5601 12.5556H22.0401C23.962 12.5556 25.5201 11.0398 25.5201 9.17003V5.78448C25.5201 3.91469 23.962 2.39893 22.0401 2.39893ZM22.0401 10.2985C22.6807 10.2985 23.2001 9.79329 23.2001 9.17003V5.78448C23.2001 5.16121 22.6807 4.65596 22.0401 4.65596H18.5601C17.9194 4.65596 17.4001 5.16121 17.4001 5.78448V9.17003C17.4001 9.79329 17.9194 10.2985 18.5601 10.2985H22.0401Z" fill="#C2C2C2"/>
</svg>
