<svg width="17" height="17" viewBox="0 0 17 17" fill="none" xmlns="http://www.w3.org/2000/svg">
<path fill-rule="evenodd" clip-rule="evenodd" d="M14.5184 6.5398L13.6451 6.25313L14.0584 5.4398C14.1899 5.18319 14.1414 4.87118 13.9384 4.66647L12.1118 2.83313C11.9071 2.63013 11.595 2.58171 11.3384 2.71313L10.5251 3.13313L10.2384 2.26647C10.1455 1.98024 9.87235 1.79176 9.57177 1.80647H7.01844C6.71787 1.79176 6.4447 1.98024 6.35177 2.26647L6.09844 3.13313L5.28511 2.71313C5.0285 2.58171 4.71649 2.63013 4.51177 2.83313L2.67844 4.66647C2.47543 4.87118 2.42702 5.18319 2.55844 5.4398L2.97844 6.25313L2.11177 6.5398C1.82555 6.63273 1.63707 6.90589 1.65177 7.20647V9.79313C1.63707 10.0937 1.82555 10.3669 2.11177 10.4598L2.97844 10.7465L2.56511 11.5598C2.43368 11.8164 2.4821 12.1284 2.68511 12.3331L4.51177 14.0998C4.71649 14.3028 5.0285 14.3512 5.28511 14.2198L6.09844 13.7998L6.38511 14.6665C6.47804 14.9527 6.7512 15.1412 7.05177 15.1265H9.63844C9.93901 15.1412 10.2122 14.9527 10.3051 14.6665L10.5918 13.7998L11.4051 14.2131C11.6617 14.3446 11.9737 14.2961 12.1784 14.0931L14.0118 12.2598C14.2148 12.0551 14.2632 11.7431 14.1318 11.4865L13.6451 10.6798L14.5118 10.3931C14.798 10.3002 14.9865 10.027 14.9718 9.72647V7.17313C14.9725 6.88652 14.79 6.63152 14.5184 6.5398ZM4.97844 8.46647C4.97844 6.62552 6.47082 5.13313 8.31177 5.13313C9.19583 5.13313 10.0437 5.48432 10.6688 6.10945C11.2939 6.73457 11.6451 7.58241 11.6451 8.46647C11.6451 10.3074 10.1527 11.7998 8.31177 11.7998C6.47082 11.7998 4.97844 10.3074 4.97844 8.46647ZM6.31177 8.46647C6.31177 9.57104 7.2072 10.4665 8.31177 10.4665C8.84221 10.4665 9.35091 10.2558 9.72599 9.88068C10.1011 9.50561 10.3118 8.9969 10.3118 8.46647C10.3118 7.3619 9.41634 6.46647 8.31177 6.46647C7.2072 6.46647 6.31177 7.3619 6.31177 8.46647ZM13.2384 9.41313L13.6451 9.2798V7.65313L13.2384 7.5198C12.8683 7.40031 12.5688 7.12516 12.4184 6.76647C12.2707 6.40634 12.2878 5.99964 12.4651 5.65313L12.6584 5.26647L11.5118 4.1198L11.1251 4.31313C10.7786 4.48787 10.3731 4.50293 10.0145 4.35439C9.65593 4.20584 9.37989 3.90843 9.25844 3.5398L9.12511 3.13313H7.49844L7.36511 3.5398C7.24366 3.90843 6.96762 4.20584 6.60905 4.35439C6.25049 4.50293 5.845 4.48787 5.49844 4.31313L5.11177 4.1198L3.96511 5.26647L4.15844 5.65313C4.33576 5.99964 4.35281 6.40634 4.20511 6.76647C4.05473 7.12516 3.75523 7.40031 3.38511 7.5198L2.97844 7.65313V9.2798L3.38511 9.41313C3.75523 9.53263 4.05473 9.80778 4.20511 10.1665C4.35281 10.5266 4.33576 10.9333 4.15844 11.2798L3.96511 11.6665L5.11177 12.8131L5.49844 12.6198C5.845 12.4451 6.25049 12.43 6.60905 12.5785C6.96762 12.7271 7.24366 13.0245 7.36511 13.3931L7.49844 13.7998H9.12511L9.25844 13.3931C9.37989 13.0245 9.65593 12.7271 10.0145 12.5785C10.3731 12.43 10.7786 12.4451 11.1251 12.6198L11.5118 12.8131L12.6584 11.6665L12.4651 11.2798C12.2878 10.9333 12.2707 10.5266 12.4184 10.1665C12.5688 9.80778 12.8683 9.53263 13.2384 9.41313Z" fill="#C2C2C2"/>
</svg>
