<svg width="28" height="28" viewBox="0 0 28 28" fill="none" xmlns="http://www.w3.org/2000/svg">
<path fill-rule="evenodd" clip-rule="evenodd" d="M9.37287 18.198C9.50047 19.3265 9.86007 19.3265 10.4749 19.3265H23.2001C23.5292 19.3301 23.8412 19.4696 24.0585 19.7102C25.2833 20.3909 25.8271 21.8303 25.3468 23.1206C24.8665 24.4109 23.5015 25.1779 22.1126 24.9377C20.7238 24.6976 19.714 23.5201 19.7201 22.1478C19.7215 21.9584 19.7409 21.7695 19.7781 21.5835H15.0801C15.1172 21.7695 15.1366 21.9584 15.1381 22.1478C15.1381 23.7059 13.8397 24.9691 12.2381 24.9691C10.6364 24.9691 9.33807 23.7059 9.33807 22.1478C9.33887 21.9191 9.37006 21.6915 9.43087 21.4707C7.01807 20.9177 6.96007 18.4801 6.96007 17.1597L4.81407 4.65578H3.48007C2.83942 4.65578 2.32007 4.15053 2.32007 3.52726C2.32007 2.904 2.83942 2.39875 3.48007 2.39875H5.80007C6.37472 2.39155 6.86816 2.79479 6.96007 3.3467L7.16887 4.65578L24.4413 5.7843C25.05 5.82585 25.5216 6.31914 25.5201 6.91281V13.8532C25.5254 15.6261 24.1239 17.1028 22.3069 17.2387L9.37287 18.198ZM19.7201 11.4269C19.7201 12.0502 19.2007 12.5554 18.5601 12.5554H17.4001V13.6839C17.4001 14.3072 16.8807 14.8124 16.2401 14.8124C15.5994 14.8124 15.0801 14.3072 15.0801 13.6839V12.5554H13.9201C13.2794 12.5554 12.7601 12.0502 12.7601 11.4269C12.7601 10.8036 13.2794 10.2984 13.9201 10.2984H15.0801V9.16986C15.0801 8.54659 15.5994 8.04134 16.2401 8.04134C16.8807 8.04134 17.4001 8.54659 17.4001 9.16986V10.2984H18.5601C19.2007 10.2984 19.7201 10.8036 19.7201 11.4269ZM22.6201 22.7121C22.2997 22.7121 22.0401 22.4594 22.0401 22.1478C22.0401 21.8362 22.2997 21.5835 22.6201 21.5835C22.9404 21.5835 23.2001 21.8362 23.2001 22.1478C23.2001 22.4594 22.9404 22.7121 22.6201 22.7121ZM11.6001 22.1478C11.6001 22.4594 11.8597 22.7121 12.1801 22.7121C12.5004 22.7121 12.7601 22.4594 12.7601 22.1478C12.7601 21.8362 12.5004 21.5835 12.1801 21.5835C11.8597 21.5835 11.6001 21.8362 11.6001 22.1478ZM23.2001 13.8532C23.202 14.4428 22.737 14.9345 22.1329 14.9817L9.18727 15.941H9.10607L7.56327 6.91282L23.2001 7.97363V13.8532Z" fill="#C2C2C2"/>
</svg>
