
<svg xmlns="http://www.w3.org/2000/svg"
 width="512.000000pt" height="512.000000pt" viewBox="0 0 512.000000 512.000000"
 preserveAspectRatio="xMidYMid meet">
<g transform="translate(0.000000,512.000000) scale(0.100000,-0.100000)"
fill="#C2C2C2" stroke="none">
<path d="M1750 4299 c-14 -6 -36 -20 -48 -32 -52 -49 -52 -45 -52 -506 l0
-430 -265 -3 c-258 -3 -265 -4 -287 -25 -20 -21 -21 -25 -7 -52 13 -28 703
-711 717 -711 4 1 168 159 365 353 236 233 357 359 357 372 -1 57 -37 64 -327
65 l-232 0 -3 433 c-3 430 -3 432 -26 469 -38 62 -127 93 -192 67z" fill="#C2C2C2"/>
<path d="M2961 3438 c-25 -13 -54 -36 -65 -51 -21 -28 -21 -40 -24 -668 l-2
-639 -995 0 -995 0 0 318 c0 199 -4 332 -11 357 -22 78 -114 136 -192 121 -52
-10 -99 -46 -124 -96 l-23 -44 0 -734 0 -734 29 -29 29 -29 151 0 150 0 6 37
c26 169 68 258 168 357 84 83 146 119 253 146 195 50 389 -4 534 -150 94 -94
160 -240 160 -352 l0 -38 525 0 525 0 0 43 c0 117 62 250 165 352 220 220 561
220 780 0 102 -102 165 -237 165 -354 l0 -41 181 0 181 0 29 29 29 29 0 161
c0 96 -4 170 -11 184 -12 26 -47 47 -79 47 -20 0 -20 11 -21 518 0 462 -2 522
-17 559 -24 61 -493 673 -534 698 -31 19 -53 20 -478 23 l-445 3 -44 -23z
m739 -298 c20 -5 50 -24 67 -42 31 -32 313 -414 313 -423 0 -3 -189 -5 -420
-5 l-420 0 0 240 0 240 213 0 c116 0 228 -5 247 -10z" fill="#C2C2C2"/>
<path d="M1350 1596 c-199 -58 -325 -253 -290 -448 48 -263 321 -409 556 -299
86 40 157 109 197 190 30 62 32 73 32 171 0 99 -2 110 -33 172 -42 85 -129
168 -209 198 -71 27 -189 35 -253 16z m171 -272 c29 -14 68 -80 69 -113 0 -30
-41 -97 -69 -114 -70 -41 -164 -7 -191 71 -13 37 -13 47 0 84 27 77 117 111
191 72z" fill="#C2C2C2"/>
<path d="M3497 1591 c-109 -36 -191 -107 -241 -211 -29 -60 -31 -73 -31 -170
0 -93 3 -111 27 -163 56 -119 173 -208 304 -230 167 -29 347 69 422 230 24 52
27 70 27 163 0 95 -3 111 -29 168 -38 82 -132 171 -213 202 -81 32 -191 36
-266 11z m189 -270 c32 -20 64 -74 64 -111 0 -12 -8 -38 -17 -57 -46 -97 -190
-97 -236 0 -21 44 -21 70 0 114 21 45 67 73 118 73 22 0 54 -9 71 -19z" fill="#C2C2C2"/>
</g>
</svg>
