<svg width="28" height="28" viewBox="0 0 28 28" fill="none" xmlns="http://www.w3.org/2000/svg">
<path fill-rule="evenodd" clip-rule="evenodd" d="M13.3517 20.2858C13.2861 20.2587 13.2239 20.2247 13.1661 20.1843L5.06927 13.4132C4.7543 13.1511 4.60697 12.7455 4.68278 12.3491C4.75859 11.9527 5.04601 11.6257 5.43678 11.4914C5.82755 11.3571 6.2623 11.4357 6.57727 11.6978L12.7601 16.8664V3.52735C12.7601 2.90409 13.2794 2.39883 13.9201 2.39883C14.5607 2.39883 15.0801 2.90409 15.0801 3.52735V16.8664L21.2861 11.6978C21.773 11.2927 22.5052 11.3483 22.9217 11.8219C23.3381 12.2956 23.281 13.008 22.7941 13.4132L14.6741 20.1843C14.6163 20.2247 14.554 20.2587 14.4885 20.2858L14.3493 20.3761C14.0737 20.4829 13.7665 20.4829 13.4909 20.3761L13.3517 20.2858ZM25.5201 22.7121V20.4551C25.5201 19.8318 25.0007 19.3266 24.3601 19.3266C23.7194 19.3266 23.2001 19.8318 23.2001 20.4551V22.6331C23.0969 22.6876 22.981 22.7148 22.8637 22.7121H4.97647C4.85917 22.7148 4.7432 22.6876 4.64007 22.6331V20.4551C4.64007 19.8318 4.12072 19.3266 3.48007 19.3266C2.83942 19.3266 2.32007 19.8318 2.32007 20.4551V22.7121C2.42523 24.0431 3.60668 25.0469 4.97647 24.9692H22.8637C24.2335 25.0469 25.4149 24.0431 25.5201 22.7121Z" fill="#C2C2C2"/>
</svg>
