<svg width="233" height="251" viewBox="0 0 233 251" fill="none" xmlns="http://www.w3.org/2000/svg">
<path d="M155.368 64.739H96.321C78.8533 64.8507 64.727 78.9469 64.727 96.3184V108.137C74.6026 105.765 85.22 104.475 96.2766 104.475V104.445H155.368V148.247H96.321C78.8533 148.324 64.727 157.99 64.727 169.902V250.864H0.866455V96.3184C0.866455 43.6246 43.5833 0.907977 96.2766 0.907977V0.863831H155.368V64.739Z" fill="#C7C5B7"/>
<path d="M78.118 250.864H137.209V250.82C189.902 250.82 232.619 208.103 232.619 155.409V0.863892H168.759V155.409C168.759 172.781 154.632 186.876 137.165 186.988L137.209 186.989H78.118V250.864Z" fill="url(#paint0_linear_199_10976)"/>
<defs>
<linearGradient id="paint0_linear_199_10976" x1="78.118" y1="250.864" x2="232.619" y2="0.863885" gradientUnits="userSpaceOnUse">
<stop stop-color="#ACB5B8"/>
<stop offset="1" stop-color="#B0B8B8"/>
</linearGradient>
</defs>
</svg>
