<svg width="125" height="25" viewBox="0 0 125 20" fill="none" xmlns="http://www.w3.org/2000/svg">
<path d="M2.16846 19.0957C1.8221 19.0957 1.53499 18.9818 1.30713 18.7539C1.07926 18.526 0.965332 18.2435 0.965332 17.9062V2.14258C0.965332 1.85091 1.06104 1.59115 1.25244 1.36328C1.48031 1.10807 1.78564 0.980469 2.16846 0.980469H10.9458C11.283 0.980469 11.5656 1.09896 11.7935 1.33594C12.0213 1.5638 12.1353 1.84635 12.1353 2.18359C12.1353 2.53906 12.0213 2.83529 11.7935 3.07227C11.5747 3.30013 11.2922 3.41406 10.9458 3.41406H3.38525V9.53906H8.67627C9.02262 9.53906 9.30973 9.65755 9.5376 9.89453C9.77458 10.1224 9.89307 10.4049 9.89307 10.7422C9.89307 11.0703 9.77458 11.3438 9.5376 11.5625C9.30973 11.7812 9.02262 11.8906 8.67627 11.8906H3.38525V17.9062C3.38525 18.2526 3.26676 18.5397 3.02979 18.7676C2.79281 18.9863 2.5057 19.0957 2.16846 19.0957ZM17.522 19.1641C16.6196 19.1641 15.7583 18.9909 14.938 18.6445C14.1177 18.2982 13.4022 17.8197 12.7915 17.209C12.1717 16.5983 11.6886 15.8874 11.3423 15.0762C10.9959 14.2559 10.8228 13.3945 10.8228 12.4922C10.8228 11.5807 10.9959 10.7194 11.3423 9.9082C11.6886 9.08789 12.1717 8.3724 12.7915 7.76172C13.4022 7.15104 14.1177 6.67253 14.938 6.32617C15.7583 5.97982 16.6196 5.80664 17.522 5.80664C18.4152 5.80664 19.2674 5.97982 20.0786 6.32617C20.8989 6.66341 21.619 7.13737 22.2388 7.74805C22.8494 8.35872 23.328 9.06966 23.6743 9.88086C24.0298 10.6921 24.2121 11.5443 24.2212 12.4375C24.2212 12.7656 24.1118 13.0391 23.8931 13.2578C23.6743 13.4766 23.3918 13.5859 23.0454 13.5859H13.5024C13.6027 14.0508 13.7759 14.4792 14.022 14.8711C14.2681 15.263 14.5688 15.6094 14.9243 15.9102C15.2889 16.2109 15.6899 16.4434 16.1274 16.6074C16.5741 16.7624 17.0389 16.8398 17.522 16.8398C17.9777 16.8398 18.3605 16.7988 18.6704 16.7168C18.9894 16.6348 19.3084 16.498 19.6274 16.3066C19.8826 16.1608 20.1242 16.0879 20.3521 16.0879C20.6619 16.0879 20.9399 16.2109 21.186 16.457C21.2954 16.5755 21.382 16.7122 21.4458 16.8672C21.5096 17.0221 21.5415 17.1816 21.5415 17.3457C21.5415 17.9017 21.1405 18.3483 20.3384 18.6855C19.9738 18.8405 19.5454 18.959 19.0532 19.041C18.5701 19.123 18.0597 19.1641 17.522 19.1641ZM21.7466 11.5625C21.6646 11.0794 21.5005 10.6283 21.2544 10.209C21.0083 9.7806 20.6984 9.41146 20.3247 9.10156C19.951 8.79167 19.5272 8.55013 19.0532 8.37695C18.5793 8.20378 18.0825 8.11719 17.563 8.11719C17.0343 8.11719 16.533 8.20378 16.0591 8.37695C15.5942 8.55013 15.1795 8.79622 14.8149 9.11523C14.4504 9.42513 14.1496 9.79427 13.9126 10.2227C13.6756 10.6419 13.5161 11.0885 13.4341 11.5625H21.7466ZM27.0103 19C26.6639 19 26.3768 18.8861 26.1489 18.6582C25.8937 18.4303 25.7661 18.1478 25.7661 17.8105V12.2461C25.7661 11.3711 25.9256 10.5417 26.2446 9.75781C26.5636 8.97396 27.0103 8.28581 27.5845 7.69336C28.1678 7.10091 28.8423 6.64062 29.6079 6.3125C30.3735 5.97526 31.1893 5.80664 32.0552 5.80664C32.9302 5.80664 33.7505 5.97526 34.5161 6.3125C35.2909 6.64062 35.9744 7.10091 36.5669 7.69336C37.1411 8.28581 37.5877 8.97396 37.9067 9.75781C38.2257 10.5417 38.3853 11.3711 38.3853 12.2461V17.8105C38.3853 18.1569 38.2713 18.444 38.0435 18.6719C37.8156 18.8906 37.533 19 37.1958 19C36.8586 19 36.5715 18.8906 36.3345 18.6719C36.0975 18.444 35.979 18.1569 35.979 17.8105V12.2734C35.9699 11.7266 35.8651 11.207 35.6646 10.7148C35.4731 10.2227 35.1997 9.79427 34.8442 9.42969C34.4797 9.05599 34.0558 8.76432 33.5728 8.55469C33.0988 8.34505 32.5929 8.24023 32.0552 8.24023C31.5083 8.24023 30.9979 8.34049 30.5239 8.54102C30.0591 8.74154 29.6489 9.02865 29.2935 9.40234C28.938 9.76693 28.6646 10.1953 28.4731 10.6875C28.2817 11.1797 28.186 11.6992 28.186 12.2461V17.8105C28.186 18.1569 28.0721 18.444 27.8442 18.6719C27.6255 18.8906 27.3475 19 27.0103 19ZM47.0122 19.1504C46.1007 19.1504 45.2349 18.9818 44.4146 18.6445C43.6034 18.3073 42.8879 17.8379 42.2681 17.2363C41.6483 16.6257 41.1652 15.9193 40.8188 15.1172C40.4725 14.3151 40.2993 13.4629 40.2993 12.5605C40.2993 11.64 40.4679 10.7695 40.8052 9.94922C41.1515 9.11979 41.6346 8.39518 42.2544 7.77539C42.8651 7.1556 43.5806 6.67253 44.4009 6.32617C45.2212 5.97982 46.0916 5.80664 47.0122 5.80664C47.8872 5.80664 48.7166 5.96159 49.5005 6.27148C50.2935 6.58138 50.9771 7.02344 51.5513 7.59766C51.8429 7.91667 51.9888 8.24935 51.9888 8.5957C51.9888 8.94206 51.8475 9.23372 51.5649 9.4707C51.4465 9.57096 51.3143 9.64844 51.1685 9.70312C51.0226 9.75781 50.8905 9.78516 50.772 9.78516C50.5715 9.78516 50.38 9.73503 50.1978 9.63477L49.2407 8.95117C48.8488 8.69596 48.4569 8.51823 48.0649 8.41797C47.6821 8.31771 47.2583 8.26758 46.7935 8.26758C46.2375 8.28581 45.7134 8.41341 45.2212 8.65039C44.729 8.87826 44.3006 9.18815 43.936 9.58008C43.5715 9.97201 43.2843 10.4186 43.0747 10.9199C42.8742 11.4212 42.7739 11.9408 42.7739 12.4785C42.7739 13.0254 42.8742 13.554 43.0747 14.0645C43.2843 14.5749 43.576 15.0215 43.9497 15.4043C44.3325 15.8145 44.7746 16.1335 45.2759 16.3613C45.7772 16.5892 46.3195 16.7031 46.9028 16.7031C47.3494 16.7031 47.7596 16.653 48.1333 16.5527C48.507 16.4525 48.8761 16.2747 49.2407 16.0195L50.1978 15.3496C50.3983 15.2402 50.5942 15.1855 50.7856 15.1855C50.9041 15.1855 51.0363 15.2129 51.1821 15.2676C51.328 15.3223 51.4556 15.3997 51.5649 15.5C51.8384 15.7552 51.9751 16.0469 51.9751 16.375C51.9751 16.5482 51.9386 16.7259 51.8657 16.9082C51.7928 17.0814 51.688 17.2363 51.5513 17.373C50.9862 17.9382 50.3071 18.3757 49.5142 18.6855C48.7212 18.9954 47.8872 19.1504 47.0122 19.1504ZM60.0415 19.1641C59.1392 19.1641 58.2778 18.9909 57.4575 18.6445C56.6372 18.2982 55.9217 17.8197 55.311 17.209C54.6912 16.5983 54.2082 15.8874 53.8618 15.0762C53.5155 14.2559 53.3423 13.3945 53.3423 12.4922C53.3423 11.5807 53.5155 10.7194 53.8618 9.9082C54.2082 9.08789 54.6912 8.3724 55.311 7.76172C55.9217 7.15104 56.6372 6.67253 57.4575 6.32617C58.2778 5.97982 59.1392 5.80664 60.0415 5.80664C60.9347 5.80664 61.7869 5.97982 62.5981 6.32617C63.4185 6.66341 64.1385 7.13737 64.7583 7.74805C65.369 8.35872 65.8475 9.06966 66.1938 9.88086C66.5493 10.6921 66.7316 11.5443 66.7407 12.4375C66.7407 12.7656 66.6313 13.0391 66.4126 13.2578C66.1938 13.4766 65.9113 13.5859 65.5649 13.5859H56.022C56.1222 14.0508 56.2954 14.4792 56.5415 14.8711C56.7876 15.263 57.0884 15.6094 57.4438 15.9102C57.8084 16.2109 58.2095 16.4434 58.647 16.6074C59.0936 16.7624 59.5584 16.8398 60.0415 16.8398C60.4972 16.8398 60.88 16.7988 61.1899 16.7168C61.509 16.6348 61.828 16.498 62.147 16.3066C62.4022 16.1608 62.6437 16.0879 62.8716 16.0879C63.1815 16.0879 63.4595 16.2109 63.7056 16.457C63.8149 16.5755 63.9015 16.7122 63.9653 16.8672C64.0291 17.0221 64.061 17.1816 64.061 17.3457C64.061 17.9017 63.66 18.3483 62.8579 18.6855C62.4933 18.8405 62.0649 18.959 61.5728 19.041C61.0897 19.123 60.5793 19.1641 60.0415 19.1641ZM64.2661 11.5625C64.1841 11.0794 64.02 10.6283 63.7739 10.209C63.5278 9.7806 63.2179 9.41146 62.8442 9.10156C62.4705 8.79167 62.0467 8.55013 61.5728 8.37695C61.0988 8.20378 60.6021 8.11719 60.0825 8.11719C59.5539 8.11719 59.0526 8.20378 58.5786 8.37695C58.1138 8.55013 57.6991 8.79622 57.3345 9.11523C56.9699 9.42513 56.6691 9.79427 56.4321 10.2227C56.1951 10.6419 56.0356 11.0885 55.9536 11.5625H64.2661Z" fill="#C7C5B7"/>
<path d="M70.2134 19C70.2043 19 70.1997 18.9954 70.1997 18.9863H70.1724C69.8807 18.9408 69.6392 18.8086 69.4478 18.5898C69.2563 18.3711 69.1606 18.1113 69.1606 17.8105V2.16992C69.1606 1.82357 69.2746 1.53646 69.5024 1.30859C69.7394 1.08073 70.0265 0.966797 70.3638 0.966797C70.701 0.966797 70.9881 1.08073 71.2251 1.30859C71.4621 1.53646 71.5806 1.82357 71.5806 2.16992V16.5938L79.1821 16.6074C79.5194 16.6074 79.8019 16.7214 80.0298 16.9492C80.2576 17.1771 80.3716 17.4596 80.3716 17.7969C80.3716 18.1523 80.2576 18.444 80.0298 18.6719C79.8019 18.8906 79.5194 19 79.1821 19H70.2134ZM87.6587 19.1641C86.7563 19.1641 85.9041 18.9954 85.1021 18.6582C84.3 18.3118 83.5936 17.8288 82.9829 17.209C82.3722 16.5983 81.8937 15.8874 81.5474 15.0762C81.2101 14.265 81.0415 13.4036 81.0415 12.4922C81.0415 11.5807 81.2101 10.7194 81.5474 9.9082C81.8937 9.09701 82.3722 8.38151 82.9829 7.76172C83.5936 7.14193 84.3 6.66341 85.1021 6.32617C85.9041 5.97982 86.7563 5.80664 87.6587 5.80664C88.561 5.80664 89.4087 5.97526 90.2017 6.3125C91.0037 6.64974 91.7101 7.1237 92.3208 7.73438C92.9224 8.34505 93.3918 9.05143 93.729 9.85352C94.0754 10.6556 94.2576 11.5078 94.2759 12.4102V17.8516C94.2759 18.1979 94.1574 18.4941 93.9204 18.7402C93.6834 18.9772 93.3918 19.0957 93.0454 19.0957C92.6991 19.0957 92.4165 18.9772 92.1978 18.7402C91.979 18.5033 91.8696 18.207 91.8696 17.8516L91.856 17.6602C91.2726 18.1432 90.6209 18.5169 89.9009 18.7812C89.1899 19.0365 88.4425 19.1641 87.6587 19.1641ZM87.6587 16.7441C88.2511 16.7441 88.8026 16.6348 89.313 16.416C89.8234 16.1973 90.2746 15.8874 90.6665 15.4863C91.0493 15.0944 91.3455 14.6432 91.5552 14.1328C91.7648 13.6133 91.8696 13.0664 91.8696 12.4922C91.8696 11.918 91.7648 11.3757 91.5552 10.8652C91.3455 10.3457 91.0493 9.88997 90.6665 9.49805C90.2746 9.10612 89.8188 8.80078 89.2993 8.58203C88.7889 8.36328 88.242 8.25391 87.6587 8.25391C87.0754 8.25391 86.5285 8.36328 86.0181 8.58203C85.5076 8.80078 85.061 9.10612 84.6782 9.49805C84.2954 9.88997 83.9946 10.3457 83.7759 10.8652C83.5662 11.3757 83.4614 11.918 83.4614 12.4922C83.4614 13.0664 83.5662 13.6133 83.7759 14.1328C83.9946 14.6432 84.2954 15.0944 84.6782 15.4863C85.061 15.8874 85.5076 16.1973 86.0181 16.416C86.5285 16.6348 87.0754 16.7441 87.6587 16.7441ZM97.7485 19C97.4022 19 97.1151 18.8861 96.8872 18.6582C96.632 18.4303 96.5044 18.1478 96.5044 17.8105V12.2461C96.5044 11.3711 96.6639 10.5417 96.9829 9.75781C97.3019 8.97396 97.7485 8.28581 98.3228 7.69336C98.9061 7.10091 99.5806 6.64062 100.346 6.3125C101.112 5.97526 101.928 5.80664 102.793 5.80664C103.668 5.80664 104.489 5.97526 105.254 6.3125C106.029 6.64062 106.713 7.10091 107.305 7.69336C107.879 8.28581 108.326 8.97396 108.645 9.75781C108.964 10.5417 109.124 11.3711 109.124 12.2461V17.8105C109.124 18.1569 109.01 18.444 108.782 18.6719C108.554 18.8906 108.271 19 107.934 19C107.597 19 107.31 18.8906 107.073 18.6719C106.836 18.444 106.717 18.1569 106.717 17.8105V12.2734C106.708 11.7266 106.603 11.207 106.403 10.7148C106.211 10.2227 105.938 9.79427 105.583 9.42969C105.218 9.05599 104.794 8.76432 104.311 8.55469C103.837 8.34505 103.331 8.24023 102.793 8.24023C102.247 8.24023 101.736 8.34049 101.262 8.54102C100.797 8.74154 100.387 9.02865 100.032 9.40234C99.6763 9.76693 99.4028 10.1953 99.2114 10.6875C99.02 11.1797 98.9243 11.6992 98.9243 12.2461V17.8105C98.9243 18.1569 98.8104 18.444 98.5825 18.6719C98.3638 18.8906 98.0858 19 97.7485 19ZM117.737 19.1641C116.834 19.1641 115.973 18.9909 115.153 18.6445C114.333 18.2982 113.617 17.8197 113.006 17.209C112.387 16.5983 111.903 15.8874 111.557 15.0762C111.211 14.2559 111.038 13.3945 111.038 12.4922C111.038 11.5807 111.211 10.7194 111.557 9.9082C111.903 9.08789 112.387 8.3724 113.006 7.76172C113.617 7.15104 114.333 6.67253 115.153 6.32617C115.973 5.97982 116.834 5.80664 117.737 5.80664C118.63 5.80664 119.482 5.97982 120.293 6.32617C121.114 6.66341 121.834 7.13737 122.454 7.74805C123.064 8.35872 123.543 9.06966 123.889 9.88086C124.245 10.6921 124.427 11.5443 124.436 12.4375C124.436 12.7656 124.327 13.0391 124.108 13.2578C123.889 13.4766 123.607 13.5859 123.26 13.5859H113.717C113.818 14.0508 113.991 14.4792 114.237 14.8711C114.483 15.263 114.784 15.6094 115.139 15.9102C115.504 16.2109 115.905 16.4434 116.342 16.6074C116.789 16.7624 117.254 16.8398 117.737 16.8398C118.193 16.8398 118.575 16.7988 118.885 16.7168C119.204 16.6348 119.523 16.498 119.842 16.3066C120.097 16.1608 120.339 16.0879 120.567 16.0879C120.877 16.0879 121.155 16.2109 121.401 16.457C121.51 16.5755 121.597 16.7122 121.661 16.8672C121.724 17.0221 121.756 17.1816 121.756 17.3457C121.756 17.9017 121.355 18.3483 120.553 18.6855C120.189 18.8405 119.76 18.959 119.268 19.041C118.785 19.123 118.275 19.1641 117.737 19.1641ZM121.961 11.5625C121.879 11.0794 121.715 10.6283 121.469 10.209C121.223 9.7806 120.913 9.41146 120.54 9.10156C120.166 8.79167 119.742 8.55013 119.268 8.37695C118.794 8.20378 118.297 8.11719 117.778 8.11719C117.249 8.11719 116.748 8.20378 116.274 8.37695C115.809 8.55013 115.394 8.79622 115.03 9.11523C114.665 9.42513 114.364 9.79427 114.127 10.2227C113.89 10.6419 113.731 11.0885 113.649 11.5625H121.961Z" fill="#ACB5B8"/>
</svg>
