<svg width="159" height="35" viewBox="0 0 159 35" fill="none" xmlns="http://www.w3.org/2000/svg">
<g filter="url(#filter0_i_51_9651)">
<path d="M4.49219 28.1196C4.05924 28.1196 3.70036 27.9772 3.41553 27.6924C3.1307 27.4076 2.98828 27.0544 2.98828 26.6328V6.92822C2.98828 6.56364 3.10791 6.23893 3.34717 5.9541C3.632 5.63509 4.01367 5.47559 4.49219 5.47559H15.4639C15.8854 5.47559 16.2386 5.6237 16.5234 5.91992C16.8083 6.20475 16.9507 6.55794 16.9507 6.97949C16.9507 7.42383 16.8083 7.79411 16.5234 8.09033C16.25 8.37516 15.8968 8.51758 15.4639 8.51758H6.01318V16.1738H12.627C13.0599 16.1738 13.4188 16.3219 13.7036 16.6182C13.9998 16.903 14.1479 17.2562 14.1479 17.6777C14.1479 18.0879 13.9998 18.4297 13.7036 18.7031C13.4188 18.9766 13.0599 19.1133 12.627 19.1133H6.01318V26.6328C6.01318 27.0658 5.86507 27.4246 5.56885 27.7095C5.27262 27.9829 4.91374 28.1196 4.49219 28.1196ZM23.6841 28.2051C22.5562 28.2051 21.4795 27.9886 20.4541 27.5557C19.4287 27.1227 18.5343 26.5246 17.771 25.7612C16.9963 24.9979 16.3924 24.1092 15.9595 23.0952C15.5265 22.0698 15.3101 20.9932 15.3101 19.8652C15.3101 18.7259 15.5265 17.6493 15.9595 16.6353C16.3924 15.6099 16.9963 14.7155 17.771 13.9521C18.5343 13.1888 19.4287 12.5907 20.4541 12.1577C21.4795 11.7248 22.5562 11.5083 23.6841 11.5083C24.8006 11.5083 25.8659 11.7248 26.8799 12.1577C27.9053 12.5793 28.8053 13.1717 29.5801 13.9351C30.3434 14.6984 30.9416 15.5871 31.3745 16.6011C31.8188 17.6151 32.0467 18.6803 32.0581 19.7969C32.0581 20.207 31.9214 20.5488 31.6479 20.8223C31.3745 21.0957 31.0213 21.2324 30.5884 21.2324H18.6597C18.785 21.8135 19.0015 22.349 19.3091 22.8389C19.6167 23.3288 19.9927 23.7617 20.437 24.1377C20.8927 24.5137 21.394 24.8042 21.9409 25.0093C22.4992 25.203 23.0802 25.2998 23.6841 25.2998C24.2537 25.2998 24.7323 25.2485 25.1196 25.146C25.5184 25.0435 25.9172 24.8726 26.3159 24.6333C26.6349 24.451 26.9368 24.3599 27.2217 24.3599C27.609 24.3599 27.9565 24.5137 28.2642 24.8213C28.4009 24.9694 28.5091 25.1403 28.5889 25.334C28.6686 25.5277 28.7085 25.7271 28.7085 25.9321C28.7085 26.6271 28.2072 27.1854 27.2046 27.6069C26.7489 27.8006 26.2134 27.9487 25.5981 28.0513C24.9943 28.1538 24.3563 28.2051 23.6841 28.2051ZM28.9648 18.7031C28.8623 18.0993 28.6572 17.5353 28.3496 17.0112C28.042 16.4757 27.6546 16.0143 27.1875 15.627C26.7204 15.2396 26.1906 14.9377 25.5981 14.7212C25.0057 14.5047 24.3848 14.3965 23.7354 14.3965C23.0745 14.3965 22.4479 14.5047 21.8555 14.7212C21.2744 14.9377 20.756 15.2453 20.3003 15.644C19.8446 16.0314 19.4686 16.4928 19.1724 17.0283C18.8761 17.5524 18.6768 18.1107 18.5742 18.7031H28.9648ZM35.5444 28C35.1115 28 34.7526 27.8576 34.4678 27.5728C34.1488 27.2879 33.9893 26.9347 33.9893 26.5132V19.5576C33.9893 18.4639 34.1886 17.4271 34.5874 16.4473C34.9862 15.4674 35.5444 14.6073 36.2622 13.8667C36.9914 13.1261 37.8345 12.5508 38.7915 12.1406C39.7485 11.7191 40.7682 11.5083 41.8506 11.5083C42.9443 11.5083 43.9697 11.7191 44.9268 12.1406C45.8952 12.5508 46.7497 13.1261 47.4902 13.8667C48.208 14.6073 48.7663 15.4674 49.165 16.4473C49.5638 17.4271 49.7632 18.4639 49.7632 19.5576V26.5132C49.7632 26.9461 49.6208 27.305 49.3359 27.5898C49.0511 27.8633 48.6979 28 48.2764 28C47.8548 28 47.4959 27.8633 47.1997 27.5898C46.9035 27.305 46.7554 26.9461 46.7554 26.5132V19.5918C46.744 18.9082 46.613 18.2588 46.3623 17.6436C46.123 17.0283 45.7812 16.4928 45.3369 16.0371C44.8812 15.57 44.3514 15.2054 43.7476 14.9434C43.1551 14.6813 42.5228 14.5503 41.8506 14.5503C41.167 14.5503 40.529 14.6756 39.9365 14.9263C39.3555 15.1769 38.8428 15.5358 38.3984 16.0029C37.9541 16.4587 37.6123 16.9941 37.373 17.6094C37.1338 18.2246 37.0142 18.874 37.0142 19.5576V26.5132C37.0142 26.9461 36.8717 27.305 36.5869 27.5898C36.3135 27.8633 35.966 28 35.5444 28ZM60.5469 28.188C59.4076 28.188 58.3252 27.9772 57.2998 27.5557C56.2858 27.1341 55.3914 26.5474 54.6167 25.7954C53.842 25.0321 53.2381 24.1491 52.8052 23.1465C52.3722 22.1439 52.1558 21.0786 52.1558 19.9507C52.1558 18.8 52.3665 17.7119 52.7881 16.6865C53.221 15.6497 53.8249 14.744 54.5996 13.9692C55.363 13.1945 56.2573 12.5907 57.2827 12.1577C58.3081 11.7248 59.3962 11.5083 60.5469 11.5083C61.6406 11.5083 62.6774 11.702 63.6572 12.0894C64.6484 12.4767 65.5029 13.0293 66.2207 13.7471C66.5853 14.1458 66.7676 14.5617 66.7676 14.9946C66.7676 15.4276 66.591 15.7922 66.2378 16.0884C66.0897 16.2137 65.9245 16.3105 65.7422 16.3789C65.5599 16.4473 65.3947 16.4814 65.2466 16.4814C64.9959 16.4814 64.7567 16.4188 64.5288 16.2935L63.3325 15.439C62.8426 15.12 62.3527 14.8978 61.8628 14.7725C61.3843 14.6471 60.8545 14.5845 60.2734 14.5845C59.5785 14.6073 58.9233 14.7668 58.3081 15.063C57.6929 15.3478 57.1574 15.7352 56.7017 16.2251C56.2459 16.715 55.887 17.2733 55.625 17.8999C55.3743 18.5265 55.249 19.1759 55.249 19.8481C55.249 20.5317 55.3743 21.1925 55.625 21.8306C55.887 22.4686 56.2516 23.0269 56.7188 23.5054C57.1973 24.0181 57.7498 24.4168 58.3765 24.7017C59.0031 24.9865 59.681 25.1289 60.4102 25.1289C60.9684 25.1289 61.4811 25.0662 61.9482 24.9409C62.4154 24.8156 62.8768 24.5934 63.3325 24.2744L64.5288 23.437C64.7795 23.3003 65.0244 23.2319 65.2637 23.2319C65.4118 23.2319 65.577 23.2661 65.7593 23.3345C65.9416 23.4028 66.1011 23.4997 66.2378 23.625C66.5796 23.944 66.7505 24.3086 66.7505 24.7188C66.7505 24.9352 66.7049 25.1574 66.6138 25.3853C66.5226 25.6017 66.3916 25.7954 66.2207 25.9663C65.5143 26.6727 64.6655 27.2196 63.6743 27.6069C62.6831 27.9943 61.6406 28.188 60.5469 28.188ZM76.8335 28.2051C75.7056 28.2051 74.6289 27.9886 73.6035 27.5557C72.5781 27.1227 71.6838 26.5246 70.9204 25.7612C70.1457 24.9979 69.5418 24.1092 69.1089 23.0952C68.6759 22.0698 68.4595 20.9932 68.4595 19.8652C68.4595 18.7259 68.6759 17.6493 69.1089 16.6353C69.5418 15.6099 70.1457 14.7155 70.9204 13.9521C71.6838 13.1888 72.5781 12.5907 73.6035 12.1577C74.6289 11.7248 75.7056 11.5083 76.8335 11.5083C77.95 11.5083 79.0153 11.7248 80.0293 12.1577C81.0547 12.5793 81.9548 13.1717 82.7295 13.9351C83.4928 14.6984 84.091 15.5871 84.5239 16.6011C84.9683 17.6151 85.1961 18.6803 85.2075 19.7969C85.2075 20.207 85.0708 20.5488 84.7974 20.8223C84.5239 21.0957 84.1707 21.2324 83.7378 21.2324H71.8091C71.9344 21.8135 72.1509 22.349 72.4585 22.8389C72.7661 23.3288 73.1421 23.7617 73.5864 24.1377C74.0422 24.5137 74.5435 24.8042 75.0903 25.0093C75.6486 25.203 76.2297 25.2998 76.8335 25.2998C77.4032 25.2998 77.8817 25.2485 78.269 25.146C78.6678 25.0435 79.0666 24.8726 79.4653 24.6333C79.7843 24.451 80.0863 24.3599 80.3711 24.3599C80.7585 24.3599 81.106 24.5137 81.4136 24.8213C81.5503 24.9694 81.6585 25.1403 81.7383 25.334C81.818 25.5277 81.8579 25.7271 81.8579 25.9321C81.8579 26.6271 81.3566 27.1854 80.354 27.6069C79.8983 27.8006 79.3628 27.9487 78.7476 28.0513C78.1437 28.1538 77.5057 28.2051 76.8335 28.2051ZM82.1143 18.7031C82.0117 18.0993 81.8066 17.5353 81.499 17.0112C81.1914 16.4757 80.804 16.0143 80.3369 15.627C79.8698 15.2396 79.34 14.9377 78.7476 14.7212C78.1551 14.5047 77.5342 14.3965 76.8848 14.3965C76.224 14.3965 75.5973 14.5047 75.0049 14.7212C74.4238 14.9377 73.9054 15.2453 73.4497 15.644C72.994 16.0314 72.618 16.4928 72.3218 17.0283C72.0256 17.5524 71.8262 18.1107 71.7236 18.7031H82.1143Z" fill="#C7C5B7"/>
<path d="M89.5483 28C89.5369 28 89.5312 27.9943 89.5312 27.9829H89.4971C89.1325 27.9259 88.8306 27.7607 88.5913 27.4873C88.3521 27.2139 88.2324 26.8892 88.2324 26.5132V6.9624C88.2324 6.52946 88.3748 6.17057 88.6597 5.88574C88.9559 5.60091 89.3148 5.4585 89.7363 5.4585C90.1579 5.4585 90.5168 5.60091 90.813 5.88574C91.1092 6.17057 91.2573 6.52946 91.2573 6.9624V24.9922L100.759 25.0093C101.181 25.0093 101.534 25.1517 101.819 25.4365C102.104 25.7214 102.246 26.0745 102.246 26.4961C102.246 26.9404 102.104 27.305 101.819 27.5898C101.534 27.8633 101.181 28 100.759 28H89.5483ZM111.355 28.2051C110.227 28.2051 109.162 27.9943 108.159 27.5728C107.157 27.1398 106.274 26.536 105.51 25.7612C104.747 24.9979 104.149 24.1092 103.716 23.0952C103.294 22.0812 103.083 21.0046 103.083 19.8652C103.083 18.7259 103.294 17.6493 103.716 16.6353C104.149 15.6213 104.747 14.7269 105.51 13.9521C106.274 13.1774 107.157 12.5793 108.159 12.1577C109.162 11.7248 110.227 11.5083 111.355 11.5083C112.483 11.5083 113.542 11.7191 114.534 12.1406C115.536 12.5622 116.419 13.1546 117.183 13.918C117.935 14.6813 118.521 15.5643 118.943 16.5669C119.376 17.5695 119.604 18.6348 119.626 19.7627V26.5645C119.626 26.9974 119.478 27.3677 119.182 27.6753C118.886 27.9715 118.521 28.1196 118.088 28.1196C117.655 28.1196 117.302 27.9715 117.029 27.6753C116.755 27.3791 116.619 27.0088 116.619 26.5645L116.602 26.3252C115.872 26.929 115.058 27.3962 114.158 27.7266C113.269 28.0456 112.335 28.2051 111.355 28.2051ZM111.355 25.1802C112.096 25.1802 112.785 25.0435 113.423 24.77C114.061 24.4966 114.625 24.1092 115.115 23.6079C115.593 23.118 115.964 22.554 116.226 21.916C116.488 21.2666 116.619 20.583 116.619 19.8652C116.619 19.1475 116.488 18.4696 116.226 17.8315C115.964 17.1821 115.593 16.6125 115.115 16.1226C114.625 15.6326 114.055 15.251 113.406 14.9775C112.768 14.7041 112.084 14.5674 111.355 14.5674C110.626 14.5674 109.942 14.7041 109.304 14.9775C108.666 15.251 108.108 15.6326 107.629 16.1226C107.151 16.6125 106.775 17.1821 106.501 17.8315C106.239 18.4696 106.108 19.1475 106.108 19.8652C106.108 20.583 106.239 21.2666 106.501 21.916C106.775 22.554 107.151 23.118 107.629 23.6079C108.108 24.1092 108.666 24.4966 109.304 24.77C109.942 25.0435 110.626 25.1802 111.355 25.1802ZM123.967 28C123.534 28 123.175 27.8576 122.891 27.5728C122.572 27.2879 122.412 26.9347 122.412 26.5132V19.5576C122.412 18.4639 122.611 17.4271 123.01 16.4473C123.409 15.4674 123.967 14.6073 124.685 13.8667C125.414 13.1261 126.257 12.5508 127.214 12.1406C128.171 11.7191 129.191 11.5083 130.273 11.5083C131.367 11.5083 132.393 11.7191 133.35 12.1406C134.318 12.5508 135.173 13.1261 135.913 13.8667C136.631 14.6073 137.189 15.4674 137.588 16.4473C137.987 17.4271 138.186 18.4639 138.186 19.5576V26.5132C138.186 26.9461 138.044 27.305 137.759 27.5898C137.474 27.8633 137.121 28 136.699 28C136.278 28 135.919 27.8633 135.623 27.5898C135.326 27.305 135.178 26.9461 135.178 26.5132V19.5918C135.167 18.9082 135.036 18.2588 134.785 17.6436C134.546 17.0283 134.204 16.4928 133.76 16.0371C133.304 15.57 132.774 15.2054 132.17 14.9434C131.578 14.6813 130.946 14.5503 130.273 14.5503C129.59 14.5503 128.952 14.6756 128.359 14.9263C127.778 15.1769 127.266 15.5358 126.821 16.0029C126.377 16.4587 126.035 16.9941 125.796 17.6094C125.557 18.2246 125.437 18.874 125.437 19.5576V26.5132C125.437 26.9461 125.295 27.305 125.01 27.5898C124.736 27.8633 124.389 28 123.967 28ZM148.953 28.2051C147.825 28.2051 146.748 27.9886 145.723 27.5557C144.697 27.1227 143.803 26.5246 143.04 25.7612C142.265 24.9979 141.661 24.1092 141.228 23.0952C140.795 22.0698 140.579 20.9932 140.579 19.8652C140.579 18.7259 140.795 17.6493 141.228 16.6353C141.661 15.6099 142.265 14.7155 143.04 13.9521C143.803 13.1888 144.697 12.5907 145.723 12.1577C146.748 11.7248 147.825 11.5083 148.953 11.5083C150.069 11.5083 151.134 11.7248 152.148 12.1577C153.174 12.5793 154.074 13.1717 154.849 13.9351C155.612 14.6984 156.21 15.5871 156.643 16.6011C157.087 17.6151 157.315 18.6803 157.327 19.7969C157.327 20.207 157.19 20.5488 156.917 20.8223C156.643 21.0957 156.29 21.2324 155.857 21.2324H143.928C144.054 21.8135 144.27 22.349 144.578 22.8389C144.885 23.3288 145.261 23.7617 145.706 24.1377C146.161 24.5137 146.663 24.8042 147.209 25.0093C147.768 25.203 148.349 25.2998 148.953 25.2998C149.522 25.2998 150.001 25.2485 150.388 25.146C150.787 25.0435 151.186 24.8726 151.584 24.6333C151.903 24.451 152.205 24.3599 152.49 24.3599C152.878 24.3599 153.225 24.5137 153.533 24.8213C153.669 24.9694 153.778 25.1403 153.857 25.334C153.937 25.5277 153.977 25.7271 153.977 25.9321C153.977 26.6271 153.476 27.1854 152.473 27.6069C152.017 27.8006 151.482 27.9487 150.867 28.0513C150.263 28.1538 149.625 28.2051 148.953 28.2051ZM154.233 18.7031C154.131 18.0993 153.926 17.5353 153.618 17.0112C153.311 16.4757 152.923 16.0143 152.456 15.627C151.989 15.2396 151.459 14.9377 150.867 14.7212C150.274 14.5047 149.653 14.3965 149.004 14.3965C148.343 14.3965 147.716 14.5047 147.124 14.7212C146.543 14.9377 146.025 15.2453 145.569 15.644C145.113 16.0314 144.737 16.4928 144.441 17.0283C144.145 17.5524 143.945 18.1107 143.843 18.7031H154.233Z" fill="#ACB5B8"/>
</g>
<defs>
<filter id="filter0_i_51_9651" x="2.98828" y="5.4585" width="154.338" height="26.7466" filterUnits="userSpaceOnUse" color-interpolation-filters="sRGB">
<feFlood flood-opacity="0" result="BackgroundImageFix"/>
<feBlend mode="normal" in="SourceGraphic" in2="BackgroundImageFix" result="shape"/>
<feColorMatrix in="SourceAlpha" type="matrix" values="0 0 0 0 0 0 0 0 0 0 0 0 0 0 0 0 0 0 127 0" result="hardAlpha"/>
<feOffset dy="4"/>
<feGaussianBlur stdDeviation="2"/>
<feComposite in2="hardAlpha" operator="arithmetic" k2="-1" k3="1"/>
<feColorMatrix type="matrix" values="0 0 0 0 0 0 0 0 0 0 0 0 0 0 0 0 0 0 0.25 0"/>
<feBlend mode="normal" in2="shape" result="effect1_innerShadow_51_9651"/>
</filter>
</defs>
</svg>
